# xmcd CD database file
#
# Track frame offsets:
#	150
#	13354
#	32255
#	48254
#	63423
#	80956
#	95120
#	118870
#	139544
#	154658
#	167203
#	187681
#	204239
#
# Disc length: 2838 seconds
#
# Revision: 0
# Processed by: cddbd v1.5.2PL0 Copyright (c) Steve Scherf et al.
# Submitted via: CDex 1.51
#
DISCID=aa0b140d
DTITLE=Chiara Civello  - The Space Between
DYEAR=2007
DGENRE=Jazz
TTITLE0=Night
TTITLE1=If You Ever Think Of Me
TTITLE2=Un Passo Dopo L'Altro
TTITLE3=My Broken Heart
TTITLE4=Mr. Tru Love
TTITLE5=Without Him
TTITLE6=Isola
TTITLE7=Seagulls
TTITLE8=Don't Ask Me Why
TTITLE9=L Train
TTITLE10=Skylark
TTITLE11=Born To Sail Away
TTITLE12=Your Home
EXTD=YEAR: 2007
EXTT0=
EXTT1=
EXTT2=
EXTT3=
EXTT4=
EXTT5=
EXTT6=
EXTT7=
EXTT8=
EXTT9=
EXTT10=
EXTT11=
EXTT12=
PLAYORDER=
